<svg width="65" height="26" viewBox="0 0 65 26" fill="none" xmlns="http://www.w3.org/2000/svg">
<path fill-rule="evenodd" clip-rule="evenodd" d="M30.487 22.6999C30.0394 22.8427 29.5346 22.9142 28.9727 22.9142C28.3156 22.9142 27.737 22.8213 27.237 22.6356C26.737 22.4499 26.3203 22.1927 25.987 21.8642C25.6537 21.5356 25.4013 21.1499 25.2299 20.707C25.0584 20.2642 24.9727 19.7808 24.9727 19.257V18.8284H26.8584V19.1713C26.8584 19.7713 27.0323 20.2499 27.3799 20.607C27.7275 20.9642 28.268 21.1427 29.0013 21.1427C29.5727 21.1427 29.9965 21.0189 30.2727 20.7713C30.5489 20.5237 30.687 20.2284 30.687 19.8856C30.687 19.7237 30.6584 19.5689 30.6013 19.4213C30.5442 19.2737 30.4442 19.1404 30.3013 19.0213C30.1584 18.9023 29.9632 18.7951 29.7156 18.6999C29.468 18.6046 29.1537 18.5237 28.7727 18.457C28.268 18.3713 27.8061 18.2594 27.387 18.1213C26.968 17.9832 26.6037 17.7999 26.2942 17.5713C25.9846 17.3427 25.7442 17.057 25.5727 16.7142C25.4013 16.3713 25.3156 15.9523 25.3156 15.457V15.3713C25.3156 14.9618 25.3989 14.5832 25.5656 14.2356C25.7323 13.888 25.9656 13.5856 26.2656 13.3284C26.5656 13.0713 26.9275 12.8713 27.3513 12.7284C27.7751 12.5856 28.2489 12.5142 28.7727 12.5142C29.3632 12.5142 29.887 12.5975 30.3442 12.7642C30.8013 12.9308 31.1846 13.157 31.4942 13.4427C31.8037 13.7284 32.037 14.057 32.1942 14.4284C32.3513 14.7999 32.4299 15.1904 32.4299 15.5999V16.1142H30.5442V15.7713C30.5442 15.3713 30.3894 15.0237 30.0799 14.7284C29.7703 14.4332 29.3346 14.2856 28.7727 14.2856C28.2965 14.2856 27.9203 14.3832 27.6442 14.5784C27.368 14.7737 27.2299 15.038 27.2299 15.3713C27.2299 15.5427 27.2632 15.6975 27.3299 15.8356C27.3965 15.9737 27.5132 16.0975 27.6799 16.207C27.8465 16.3165 28.0656 16.4142 28.337 16.4999C28.6084 16.5856 28.9537 16.6665 29.3727 16.7427C30.4203 16.9332 31.2203 17.2523 31.7727 17.6999C32.3251 18.1475 32.6013 18.8094 32.6013 19.6856V19.857C32.6013 20.3237 32.518 20.7451 32.3513 21.1213C32.1846 21.4975 31.9442 21.8189 31.6299 22.0856C31.3156 22.3523 30.9346 22.557 30.487 22.6999ZM2.32885 22.7142L2.81456 20.5713H6.21456L6.70028 22.7142H8.67171L6.28599 12.7142H2.74314L0.357422 22.7142H2.32885ZM5.80028 18.7713H3.21456L4.38599 13.657H4.64314L5.80028 18.7713ZM10.7911 21.6856V25.5713H8.9911V15.6284H10.7911V16.657H11.0482C11.2387 16.2665 11.5149 15.9642 11.8768 15.7499C12.2387 15.5356 12.7006 15.4284 13.2625 15.4284C13.6816 15.4284 14.0792 15.5094 14.4554 15.6713C14.8316 15.8332 15.1601 16.0689 15.4411 16.3784C15.722 16.688 15.9459 17.0665 16.1125 17.5142C16.2792 17.9618 16.3625 18.4713 16.3625 19.0427V19.2999C16.3625 19.8808 16.2816 20.3951 16.1197 20.8427C15.9578 21.2904 15.7387 21.6689 15.4625 21.9784C15.1863 22.288 14.8601 22.5213 14.484 22.6784C14.1078 22.8356 13.7006 22.9142 13.2625 22.9142C12.9387 22.9142 12.6578 22.8808 12.4197 22.8142C12.1816 22.7475 11.9744 22.657 11.7982 22.5427C11.622 22.4284 11.4744 22.2975 11.3554 22.1499C11.2363 22.0023 11.134 21.8475 11.0482 21.6856H10.7911ZM12.6768 21.1999C12.1149 21.1999 11.6601 21.0213 11.3125 20.6642C10.9649 20.307 10.7911 19.838 10.7911 19.257V19.0856C10.7911 18.5046 10.9649 18.0356 11.3125 17.6784C11.6601 17.3213 12.1149 17.1427 12.6768 17.1427C13.2387 17.1427 13.6935 17.3165 14.0411 17.6642C14.3887 18.0118 14.5625 18.4856 14.5625 19.0856V19.257C14.5625 19.857 14.3887 20.3308 14.0411 20.6784C13.6935 21.0261 13.2387 21.1999 12.6768 21.1999ZM18.8962 21.6856V25.5713H17.0962V15.6284H18.8962V16.657H19.1533C19.3438 16.2665 19.62 15.9642 19.9819 15.7499C20.3438 15.5356 20.8057 15.4284 21.3676 15.4284C21.7867 15.4284 22.1843 15.5094 22.5605 15.6713C22.9367 15.8332 23.2652 16.0689 23.5462 16.3784C23.8271 16.688 24.051 17.0665 24.2176 17.5142C24.3843 17.9618 24.4676 18.4713 24.4676 19.0427V19.2999C24.4676 19.8808 24.3867 20.3951 24.2248 20.8427C24.0629 21.2904 23.8438 21.6689 23.5676 21.9784C23.2914 22.288 22.9652 22.5213 22.5891 22.6784C22.2129 22.8356 21.8057 22.9142 21.3676 22.9142C21.0438 22.9142 20.7629 22.8808 20.5248 22.8142C20.2867 22.7475 20.0795 22.657 19.9033 22.5427C19.7271 22.4284 19.5795 22.2975 19.4605 22.1499C19.3414 22.0023 19.2391 21.8475 19.1533 21.6856H18.8962ZM20.7819 21.1999C20.22 21.1999 19.7652 21.0213 19.4176 20.6642C19.07 20.307 18.8962 19.838 18.8962 19.257V19.0856C18.8962 18.5046 19.07 18.0356 19.4176 17.6784C19.7652 17.3213 20.22 17.1427 20.7819 17.1427C21.3438 17.1427 21.7986 17.3165 22.1462 17.6642C22.4938 18.0118 22.6676 18.4856 22.6676 19.0856V19.257C22.6676 19.857 22.4938 20.3308 22.1462 20.6784C21.7986 21.0261 21.3438 21.1999 20.7819 21.1999ZM39.6778 22.7142V20.9999H37.7635C37.5064 20.9999 37.3778 20.857 37.3778 20.5713V17.3427H39.935V15.6284H37.3778V12.7142H35.5778V15.6284H33.4778V17.3427H35.5778V21.5999C35.5778 21.9237 35.6802 22.1904 35.885 22.3999C36.0897 22.6094 36.354 22.7142 36.6778 22.7142H39.6778ZM46.4329 22.6713C45.9901 22.8332 45.5258 22.9142 45.0401 22.9142C44.5544 22.9142 44.0901 22.8332 43.6472 22.6713C43.2044 22.5094 42.8115 22.2737 42.4686 21.9642C42.1258 21.6546 41.8544 21.2737 41.6544 20.8213C41.4544 20.3689 41.3544 19.8475 41.3544 19.257V19.0856C41.3544 18.5046 41.4544 17.988 41.6544 17.5356C41.8544 17.0832 42.1258 16.6999 42.4686 16.3856C42.8115 16.0713 43.2044 15.8332 43.6472 15.6713C44.0901 15.5094 44.5544 15.4284 45.0401 15.4284C45.5258 15.4284 45.9901 15.5094 46.4329 15.6713C46.8758 15.8332 47.2687 16.0713 47.6115 16.3856C47.9544 16.6999 48.2258 17.0832 48.4258 17.5356C48.6258 17.988 48.7258 18.5046 48.7258 19.0856V19.257C48.7258 19.8475 48.6258 20.3689 48.4258 20.8213C48.2258 21.2737 47.9544 21.6546 47.6115 21.9642C47.2687 22.2737 46.8758 22.5094 46.4329 22.6713ZM45.0401 21.1999C44.7829 21.1999 44.5401 21.157 44.3115 21.0713C44.0829 20.9856 43.8829 20.8618 43.7115 20.6999C43.5401 20.538 43.4044 20.3404 43.3044 20.107C43.2044 19.8737 43.1544 19.6094 43.1544 19.3142V19.0284C43.1544 18.7332 43.2044 18.4689 43.3044 18.2356C43.4044 18.0023 43.5401 17.8046 43.7115 17.6427C43.8829 17.4808 44.0829 17.357 44.3115 17.2713C44.5401 17.1856 44.7829 17.1427 45.0401 17.1427C45.2972 17.1427 45.5401 17.1856 45.7686 17.2713C45.9972 17.357 46.1972 17.4808 46.3686 17.6427C46.5401 17.8046 46.6758 18.0023 46.7758 18.2356C46.8758 18.4689 46.9258 18.7332 46.9258 19.0284V19.3142C46.9258 19.6094 46.8758 19.8737 46.7758 20.107C46.6758 20.3404 46.5401 20.538 46.3686 20.6999C46.1972 20.8618 45.9972 20.9856 45.7686 21.0713C45.5401 21.157 45.2972 21.1999 45.0401 21.1999ZM54.2595 20.9999V22.7142H49.3737V20.9999H50.8309V17.3427H49.5452V15.6284H52.5452V16.657H52.8023C52.9357 16.2665 53.1618 15.9642 53.4809 15.7499C53.7999 15.5356 54.1833 15.4284 54.6309 15.4284C55.3357 15.4284 55.9023 15.6499 56.3309 16.0927C56.7595 16.5356 56.9737 17.2094 56.9737 18.1142V18.4284L55.1166 18.5999V18.3999C55.1166 18.0094 55.0166 17.6975 54.8166 17.4642C54.6166 17.2308 54.3166 17.1142 53.9166 17.1142C53.5166 17.1142 53.2023 17.2523 52.9737 17.5284C52.7452 17.8046 52.6309 18.1999 52.6309 18.7142V20.9999H54.2595ZM61.3217 22.9142C61.7884 22.9142 62.1955 22.8618 62.5431 22.757C62.8908 22.6523 63.186 22.5189 63.4288 22.357C63.6717 22.1951 63.8693 22.0165 64.0217 21.8213C64.1741 21.6261 64.2931 21.438 64.3788 21.257L62.836 20.3999C62.7312 20.6189 62.5598 20.807 62.3217 20.9642C62.0836 21.1213 61.7408 21.1999 61.2931 21.1999C61.0646 21.1999 60.8479 21.1642 60.6431 21.0927C60.4384 21.0213 60.2574 20.9213 60.1003 20.7927C59.9431 20.6642 59.8193 20.5118 59.7288 20.3356C59.6384 20.1594 59.5884 19.9665 59.5788 19.757H64.7788V18.7999C64.7788 18.4284 64.7122 18.0451 64.5788 17.6499C64.4455 17.2546 64.236 16.8927 63.9503 16.5642C63.6646 16.2356 63.3027 15.9642 62.8646 15.7499C62.4265 15.5356 61.9027 15.4284 61.2931 15.4284C60.7979 15.4284 60.3336 15.5165 59.9003 15.6927C59.4669 15.8689 59.0884 16.1142 58.7646 16.4284C58.4408 16.7427 58.186 17.1237 58.0003 17.5713C57.8146 18.0189 57.7217 18.5142 57.7217 19.057V19.1427C57.7217 19.7332 57.8098 20.2618 57.986 20.7284C58.1622 21.1951 58.4098 21.5904 58.7288 21.9142C59.0479 22.238 59.4265 22.4856 59.8646 22.657C60.3027 22.8284 60.7884 22.9142 61.3217 22.9142ZM59.6074 18.2142H62.9503C62.8931 17.8808 62.7146 17.6046 62.4146 17.3856C62.1146 17.1665 61.736 17.057 61.2789 17.057C60.8217 17.057 60.4503 17.1737 60.1646 17.407C59.8788 17.6404 59.6931 17.9094 59.6074 18.2142Z" fill="#495567"/>
<path fill-rule="evenodd" clip-rule="evenodd" d="M14.8255 1.60338C14.7422 1.63909 14.6553 1.65695 14.5648 1.65695C14.4696 1.65695 14.3815 1.63909 14.3005 1.60338C14.2196 1.56766 14.1481 1.52004 14.0862 1.46052C14.0243 1.401 13.9755 1.32957 13.9398 1.24623C13.9041 1.1629 13.8862 1.07361 13.8862 0.978376C13.8862 0.883138 13.9041 0.793852 13.9398 0.710519C13.9755 0.627186 14.0243 0.555757 14.0862 0.496233C14.1481 0.436709 14.2196 0.38909 14.3005 0.353376C14.3815 0.317662 14.4696 0.299805 14.5648 0.299805C14.6553 0.299805 14.7422 0.317662 14.8255 0.353376C14.9088 0.38909 14.9815 0.436709 15.0434 0.496233C15.1053 0.555757 15.1541 0.627186 15.1898 0.710519C15.2255 0.793852 15.2434 0.883138 15.2434 0.978376C15.2434 1.07361 15.2255 1.1629 15.1898 1.24623C15.1541 1.32957 15.1053 1.401 15.0434 1.46052C14.9815 1.52004 14.9088 1.56766 14.8255 1.60338ZM1.47857 4.4998L1.23571 5.57123H0.25L1.44286 0.571233H3.21429L4.40714 5.57123H3.42143L3.17857 4.4998H1.47857ZM1.67857 3.5998H2.97143L2.39286 1.04266H2.26429L1.67857 3.5998ZM7.23112 5.57123L8.24541 2.02838H7.27398L6.43827 5.14266H6.30969L5.47398 2.02838H4.50255L5.51684 5.57123H7.23112ZM10.698 5.53195C10.5265 5.6248 10.3265 5.67123 10.098 5.67123C9.88367 5.67123 9.68248 5.63076 9.49439 5.5498C9.30629 5.46885 9.14082 5.3498 8.99796 5.19266C8.8551 5.03552 8.74201 4.84504 8.65867 4.62123C8.57534 4.39742 8.53367 4.14266 8.53367 3.85695V3.74266C8.53367 3.46171 8.57415 3.20933 8.6551 2.98552C8.73605 2.76171 8.84558 2.57123 8.98367 2.41409C9.12177 2.25695 9.28248 2.13671 9.46582 2.05338C9.64915 1.97004 9.84558 1.92838 10.0551 1.92838C10.3075 1.92838 10.5111 1.97123 10.6658 2.05695C10.8206 2.14266 10.9432 2.276 11.0337 2.45695H11.1622V2.02838H12.0622V4.4998C12.0622 4.64266 12.1265 4.71409 12.2551 4.71409H12.3908V5.57123H11.7765C11.6146 5.57123 11.4825 5.52361 11.3801 5.42838C11.2777 5.33314 11.2265 5.20933 11.2265 5.05695H11.098C11.0027 5.28076 10.8694 5.43909 10.698 5.53195ZM10.298 4.81409C10.0361 4.81409 9.82653 4.72719 9.66939 4.55338C9.51225 4.37957 9.43367 4.14266 9.43367 3.84266V3.75695C9.43367 3.45695 9.51225 3.22004 9.66939 3.04623C9.82653 2.87242 10.0361 2.78552 10.298 2.78552C10.5599 2.78552 10.7694 2.87242 10.9265 3.04623C11.0837 3.22004 11.1622 3.45695 11.1622 3.75695V3.84266C11.1622 4.14266 11.0837 4.37957 10.9265 4.55338C10.7694 4.72719 10.5599 4.81409 10.298 4.81409ZM16.0505 4.71409H15.0219V2.02838H13.0077V2.88552H14.1219V4.71409H12.9219V5.57123H16.0505V4.71409ZM19.0316 4.71409H20.1888V5.57123H16.8888V4.71409H18.1316V1.42838H16.9316V0.571233H19.0316V4.71409ZM22.2556 5.67123C22.4842 5.67123 22.6842 5.6248 22.8556 5.53195C23.027 5.43909 23.1604 5.28076 23.2556 5.05695H23.3842C23.3842 5.20933 23.4354 5.33314 23.5378 5.42838C23.6401 5.52361 23.7723 5.57123 23.9342 5.57123H24.5485V4.71409H24.4128C24.2842 4.71409 24.2199 4.64266 24.2199 4.4998V2.02838H23.3199V2.45695H23.1913C23.1008 2.276 22.9782 2.14266 22.8235 2.05695C22.6687 1.97123 22.4651 1.92838 22.2128 1.92838C22.0032 1.92838 21.8068 1.97004 21.6235 2.05338C21.4401 2.13671 21.2794 2.25695 21.1413 2.41409C21.0032 2.57123 20.8937 2.76171 20.8128 2.98552C20.7318 3.20933 20.6913 3.46171 20.6913 3.74266V3.85695C20.6913 4.14266 20.733 4.39742 20.8163 4.62123C20.8997 4.84504 21.0128 5.03552 21.1556 5.19266C21.2985 5.3498 21.4639 5.46885 21.652 5.5498C21.8401 5.63076 22.0413 5.67123 22.2556 5.67123ZM21.827 4.55338C21.9842 4.72719 22.1937 4.81409 22.4556 4.81409C22.7175 4.81409 22.927 4.72719 23.0842 4.55338C23.2413 4.37957 23.3199 4.14266 23.3199 3.84266V3.75695C23.3199 3.45695 23.2413 3.22004 23.0842 3.04623C22.927 2.87242 22.7175 2.78552 22.4556 2.78552C22.1937 2.78552 21.9842 2.87242 21.827 3.04623C21.6699 3.22004 21.5913 3.45695 21.5913 3.75695V3.84266C21.5913 4.14266 21.6699 4.37957 21.827 4.55338ZM27.001 5.67123C27.2201 5.67123 27.4236 5.63195 27.6117 5.55338C27.7998 5.4748 27.9629 5.35814 28.101 5.20338C28.2391 5.04861 28.3486 4.85933 28.4296 4.63552C28.5105 4.41171 28.551 4.15457 28.551 3.86409V3.73552C28.551 3.4498 28.5094 3.19504 28.426 2.97123C28.3427 2.74742 28.2308 2.55814 28.0903 2.40338C27.9498 2.24861 27.7855 2.13076 27.5975 2.0498C27.4094 1.96885 27.2105 1.92838 27.001 1.92838C26.7201 1.92838 26.4891 1.98195 26.3082 2.08909C26.1272 2.19623 25.9891 2.34742 25.8939 2.54266H25.7653V0.571233H24.8653V5.57123H25.7653V5.05695H25.8939C25.9367 5.1379 25.9879 5.21528 26.0474 5.28909C26.107 5.3629 26.1808 5.42838 26.2689 5.48552C26.357 5.54266 26.4605 5.5879 26.5796 5.62123C26.6986 5.65457 26.8391 5.67123 27.001 5.67123ZM26.026 4.54623C26.1998 4.7248 26.4272 4.81409 26.7082 4.81409C26.9891 4.81409 27.2165 4.72719 27.3903 4.55338C27.5641 4.37957 27.651 4.14266 27.651 3.84266V3.75695C27.651 3.45695 27.5641 3.22004 27.3903 3.04623C27.2165 2.87242 26.9891 2.78552 26.7082 2.78552C26.4272 2.78552 26.1998 2.8748 26.026 3.05338C25.8522 3.23195 25.7653 3.46647 25.7653 3.75695V3.84266C25.7653 4.13314 25.8522 4.36766 26.026 4.54623ZM32.3464 4.71409H31.1893V0.571233H29.0893V1.42838H30.2893V4.71409H29.0464V5.57123H32.3464V4.71409ZM35.3954 5.59266C35.2216 5.64504 35.018 5.67123 34.7847 5.67123C34.518 5.67123 34.2752 5.62838 34.0561 5.54266C33.8371 5.45695 33.6478 5.33314 33.4883 5.17123C33.3287 5.00933 33.2049 4.81171 33.1168 4.57838C33.0287 4.34504 32.9847 4.08076 32.9847 3.78552V3.74266C32.9847 3.47123 33.0311 3.22361 33.124 2.9998C33.2168 2.776 33.3442 2.58552 33.5061 2.42838C33.668 2.27123 33.8573 2.14861 34.074 2.06052C34.2906 1.97242 34.5228 1.92838 34.7704 1.92838C35.0752 1.92838 35.3371 1.98195 35.5561 2.08909C35.7752 2.19623 35.9561 2.33195 36.099 2.49623C36.2418 2.66052 36.3466 2.84147 36.4133 3.03909C36.4799 3.23671 36.5133 3.42838 36.5133 3.61409V4.09266H33.9133C33.918 4.19742 33.943 4.29385 33.9883 4.38195C34.0335 4.47004 34.0954 4.54623 34.174 4.61052C34.2526 4.6748 34.343 4.7248 34.4454 4.76052C34.5478 4.79623 34.6561 4.81409 34.7704 4.81409C34.9942 4.81409 35.1656 4.7748 35.2847 4.69623C35.4037 4.61766 35.4895 4.52361 35.5418 4.41409L36.3133 4.84266C36.2704 4.93314 36.2109 5.02719 36.1347 5.1248C36.0585 5.22242 35.9597 5.31171 35.8383 5.39266C35.7168 5.47361 35.5692 5.54028 35.3954 5.59266ZM35.599 3.32123H33.9276C33.9704 3.16885 34.0633 3.03433 34.2061 2.91766C34.349 2.801 34.5347 2.74266 34.7633 2.74266C34.9918 2.74266 35.1811 2.79742 35.3311 2.90695C35.4811 3.01647 35.5704 3.15457 35.599 3.32123ZM43.5505 5.5498C43.3291 5.63076 43.0969 5.67123 42.8541 5.67123C42.6112 5.67123 42.3791 5.63076 42.1576 5.5498C41.9362 5.46885 41.7398 5.351 41.5684 5.19623C41.3969 5.04147 41.2612 4.851 41.1612 4.6248C41.0612 4.39861 41.0112 4.1379 41.0112 3.84266V3.75695C41.0112 3.46647 41.0612 3.20814 41.1612 2.98195C41.2612 2.75576 41.3969 2.56409 41.5684 2.40695C41.7398 2.2498 41.9362 2.13076 42.1576 2.0498C42.3791 1.96885 42.6112 1.92838 42.8541 1.92838C43.0969 1.92838 43.3291 1.96885 43.5505 2.0498C43.7719 2.13076 43.9684 2.2498 44.1398 2.40695C44.3112 2.56409 44.4469 2.75576 44.5469 2.98195C44.6469 3.20814 44.6969 3.46647 44.6969 3.75695V3.84266C44.6969 4.1379 44.6469 4.39861 44.5469 4.6248C44.4469 4.851 44.3112 5.04147 44.1398 5.19623C43.9684 5.351 43.7719 5.46885 43.5505 5.5498ZM42.8541 4.81409C42.7255 4.81409 42.6041 4.79266 42.4898 4.7498C42.3755 4.70695 42.2755 4.64504 42.1898 4.56409C42.1041 4.48314 42.0362 4.38433 41.9862 4.26766C41.9362 4.151 41.9112 4.01885 41.9112 3.87123V3.72838C41.9112 3.58076 41.9362 3.44861 41.9862 3.33195C42.0362 3.21528 42.1041 3.11647 42.1898 3.03552C42.2755 2.95457 42.3755 2.89266 42.4898 2.8498C42.6041 2.80695 42.7255 2.78552 42.8541 2.78552C42.9827 2.78552 43.1041 2.80695 43.2184 2.8498C43.3327 2.89266 43.4327 2.95457 43.5184 3.03552C43.6041 3.11647 43.6719 3.21528 43.7219 3.33195C43.7719 3.44861 43.7969 3.58076 43.7969 3.72838V3.87123C43.7969 4.01885 43.7719 4.151 43.7219 4.26766C43.6719 4.38433 43.6041 4.48314 43.5184 4.56409C43.4327 4.64504 43.3327 4.70695 43.2184 4.7498C43.1041 4.79266 42.9827 4.81409 42.8541 4.81409ZM46.1781 3.72838V5.57123H45.2781V2.02838H46.1781V2.55695H46.3066C46.3876 2.35695 46.5185 2.20219 46.6995 2.09266C46.8804 1.98314 47.0923 1.92838 47.3352 1.92838C47.5066 1.92838 47.6673 1.95576 47.8173 2.01052C47.9673 2.06528 48.0995 2.1498 48.2138 2.26409C48.3281 2.37838 48.4173 2.52361 48.4816 2.6998C48.5459 2.876 48.5781 3.08552 48.5781 3.32838V5.57123H47.6781V3.55695C47.6781 3.30457 47.6173 3.10576 47.4959 2.96052C47.3745 2.81528 47.1995 2.74266 46.9709 2.74266C46.7043 2.74266 46.5054 2.83195 46.3745 3.01052C46.2435 3.18909 46.1781 3.42838 46.1781 3.72838ZM56.3832 4.71409H55.426C55.2975 4.71409 55.2332 4.64266 55.2332 4.4998V2.88552H56.5117V2.02838H55.2332V0.571233H54.3332V2.02838H53.2832V2.88552H54.3332V5.01409C54.3332 5.176 54.3844 5.30933 54.4867 5.41409C54.5891 5.51885 54.7213 5.57123 54.8832 5.57123H56.3832V4.71409ZM58.35 3.72838V5.57123H57.45V0.571233H58.35V2.5998H58.4786C58.569 2.38552 58.7024 2.22004 58.8786 2.10338C59.0548 1.98671 59.2714 1.92838 59.5286 1.92838C59.7048 1.92838 59.8667 1.95695 60.0143 2.01409C60.1619 2.07123 60.2905 2.15695 60.4 2.27123C60.5095 2.38552 60.5952 2.53195 60.6571 2.71052C60.719 2.88909 60.75 3.0998 60.75 3.34266V5.57123H59.85V3.55695C59.85 3.30457 59.7893 3.10576 59.6679 2.96052C59.5464 2.81528 59.3714 2.74266 59.1429 2.74266C58.8762 2.74266 58.6774 2.83195 58.5464 3.01052C58.4155 3.18909 58.35 3.42838 58.35 3.72838ZM63.1525 5.67123C63.3859 5.67123 63.5895 5.64504 63.7633 5.59266C63.9371 5.54028 64.0847 5.47361 64.2061 5.39266C64.3276 5.31171 64.4264 5.22242 64.5025 5.1248C64.5787 5.02719 64.6383 4.93314 64.6811 4.84266L63.9097 4.41409C63.8573 4.52361 63.7716 4.61766 63.6525 4.69623C63.5335 4.7748 63.3621 4.81409 63.1383 4.81409C63.024 4.81409 62.9156 4.79623 62.8133 4.76052C62.7109 4.7248 62.6204 4.6748 62.5418 4.61052C62.4633 4.54623 62.4014 4.47004 62.3561 4.38195C62.3109 4.29385 62.2859 4.19742 62.2811 4.09266H64.8811V3.61409C64.8811 3.42838 64.8478 3.23671 64.7811 3.03909C64.7145 2.84147 64.6097 2.66052 64.4668 2.49623C64.324 2.33195 64.143 2.19623 63.924 2.08909C63.7049 1.98195 63.443 1.92838 63.1383 1.92838C62.8906 1.92838 62.6585 1.97242 62.4418 2.06052C62.2252 2.14861 62.0359 2.27123 61.874 2.42838C61.7121 2.58552 61.5847 2.776 61.4918 2.9998C61.399 3.22361 61.3526 3.47123 61.3526 3.74266V3.78552C61.3526 4.08076 61.3966 4.34504 61.4847 4.57838C61.5728 4.81171 61.6966 5.00933 61.8561 5.17123C62.0156 5.33314 62.2049 5.45695 62.424 5.54266C62.643 5.62838 62.8859 5.67123 63.1525 5.67123ZM62.2954 3.32123H63.9668C63.9383 3.15457 63.849 3.01647 63.699 2.90695C63.549 2.79742 63.3597 2.74266 63.1311 2.74266C62.9025 2.74266 62.7168 2.801 62.574 2.91766C62.4311 3.03433 62.3383 3.16885 62.2954 3.32123Z" fill="#495567"/>
</svg>
