<svg width="82" height="26" viewBox="0 0 82 26" fill="none" xmlns="http://www.w3.org/2000/svg">
<path fill-rule="evenodd" clip-rule="evenodd" d="M5.94305 22.5356C5.61924 22.788 5.13353 22.9142 4.48591 22.9142C4.02877 22.9142 3.6002 22.8284 3.2002 22.657C2.8002 22.4856 2.45258 22.2308 2.15734 21.8927C1.8621 21.5546 1.62877 21.1356 1.45734 20.6356C1.28591 20.1356 1.2002 19.5523 1.2002 18.8856V16.5427C1.2002 15.8951 1.29305 15.3213 1.47877 14.8213C1.66448 14.3213 1.92162 13.8999 2.2502 13.557C2.57877 13.2142 2.97162 12.9546 3.42877 12.7784C3.88591 12.6023 4.39067 12.5142 4.94305 12.5142C5.51448 12.5142 6.024 12.607 6.47162 12.7927C6.91924 12.9784 7.3002 13.2356 7.61448 13.5642C7.92877 13.8927 8.16686 14.2784 8.32877 14.7213C8.49067 15.1642 8.57162 15.638 8.57162 16.1427V16.3142H6.68591V16.1427C6.68591 15.5427 6.53115 15.088 6.22162 14.7784C5.9121 14.4689 5.47639 14.3142 4.91448 14.3142C4.38115 14.3142 3.94305 14.4927 3.6002 14.8499C3.25734 15.207 3.08591 15.8189 3.08591 16.6856V18.7999C3.08591 20.3427 3.71448 21.1142 4.97162 21.1142C5.53353 21.1142 5.95972 20.9642 6.2502 20.6642C6.54067 20.3642 6.68591 19.9618 6.68591 19.457H4.28591V17.657H8.57162V22.7142H6.85734V21.5999H6.6002C6.48591 21.9713 6.26686 22.2832 5.94305 22.5356ZM14.441 22.6713C13.9982 22.8332 13.5339 22.9142 13.0482 22.9142C12.5624 22.9142 12.0982 22.8332 11.6553 22.6713C11.2124 22.5094 10.8196 22.2737 10.4767 21.9642C10.1339 21.6546 9.86244 21.2737 9.66244 20.8213C9.46244 20.3689 9.36244 19.8475 9.36244 19.257V19.0856C9.36244 18.5046 9.46244 17.988 9.66244 17.5356C9.86244 17.0832 10.1339 16.6999 10.4767 16.3856C10.8196 16.0713 11.2124 15.8332 11.6553 15.6713C12.0982 15.5094 12.5624 15.4284 13.0482 15.4284C13.5339 15.4284 13.9982 15.5094 14.441 15.6713C14.8839 15.8332 15.2767 16.0713 15.6196 16.3856C15.9624 16.6999 16.2339 17.0832 16.4339 17.5356C16.6339 17.988 16.7339 18.5046 16.7339 19.0856V19.257C16.7339 19.8475 16.6339 20.3689 16.4339 20.8213C16.2339 21.2737 15.9624 21.6546 15.6196 21.9642C15.2767 22.2737 14.8839 22.5094 14.441 22.6713ZM13.0482 21.1999C12.791 21.1999 12.5482 21.157 12.3196 21.0713C12.091 20.9856 11.891 20.8618 11.7196 20.6999C11.5482 20.538 11.4124 20.3404 11.3124 20.107C11.2124 19.8737 11.1624 19.6094 11.1624 19.3142V19.0284C11.1624 18.7332 11.2124 18.4689 11.3124 18.2356C11.4124 18.0023 11.5482 17.8046 11.7196 17.6427C11.891 17.4808 12.091 17.357 12.3196 17.2713C12.5482 17.1856 12.791 17.1427 13.0482 17.1427C13.3053 17.1427 13.5482 17.1856 13.7767 17.2713C14.0053 17.357 14.2053 17.4808 14.3767 17.6427C14.5482 17.8046 14.6839 18.0023 14.7839 18.2356C14.8839 18.4689 14.9339 18.7332 14.9339 19.0284V19.3142C14.9339 19.6094 14.8839 19.8737 14.7839 20.107C14.6839 20.3404 14.5482 20.538 14.3767 20.6999C14.2053 20.8618 14.0053 20.9856 13.7767 21.0713C13.5482 21.157 13.3053 21.1999 13.0482 21.1999ZM22.5461 22.6713C22.1033 22.8332 21.639 22.9142 21.1533 22.9142C20.6675 22.9142 20.2033 22.8332 19.7604 22.6713C19.3175 22.5094 18.9247 22.2737 18.5818 21.9642C18.239 21.6546 17.9675 21.2737 17.7675 20.8213C17.5675 20.3689 17.4675 19.8475 17.4675 19.257V19.0856C17.4675 18.5046 17.5675 17.988 17.7675 17.5356C17.9675 17.0832 18.239 16.6999 18.5818 16.3856C18.9247 16.0713 19.3175 15.8332 19.7604 15.6713C20.2033 15.5094 20.6675 15.4284 21.1533 15.4284C21.639 15.4284 22.1033 15.5094 22.5461 15.6713C22.989 15.8332 23.3818 16.0713 23.7247 16.3856C24.0675 16.6999 24.339 17.0832 24.539 17.5356C24.739 17.988 24.839 18.5046 24.839 19.0856V19.257C24.839 19.8475 24.739 20.3689 24.539 20.8213C24.339 21.2737 24.0675 21.6546 23.7247 21.9642C23.3818 22.2737 22.989 22.5094 22.5461 22.6713ZM21.1533 21.1999C20.8961 21.1999 20.6533 21.157 20.4247 21.0713C20.1961 20.9856 19.9961 20.8618 19.8247 20.6999C19.6533 20.538 19.5175 20.3404 19.4175 20.107C19.3175 19.8737 19.2675 19.6094 19.2675 19.3142V19.0284C19.2675 18.7332 19.3175 18.4689 19.4175 18.2356C19.5175 18.0023 19.6533 17.8046 19.8247 17.6427C19.9961 17.4808 20.1961 17.357 20.4247 17.2713C20.6533 17.1856 20.8961 17.1427 21.1533 17.1427C21.4104 17.1427 21.6533 17.1856 21.8818 17.2713C22.1104 17.357 22.3104 17.4808 22.4818 17.6427C22.6533 17.8046 22.789 18.0023 22.889 18.2356C22.989 18.4689 23.039 18.7332 23.039 19.0284V19.3142C23.039 19.6094 22.989 19.8737 22.889 20.107C22.789 20.3404 22.6533 20.538 22.4818 20.6999C22.3104 20.8618 22.1104 20.9856 21.8818 21.0713C21.6533 21.157 21.4104 21.1999 21.1533 21.1999ZM32.5512 25.257C32.3465 25.4665 32.0822 25.5713 31.7584 25.5713H26.9869V23.857H30.6726C30.9298 23.857 31.0584 23.7142 31.0584 23.4284V21.6856H30.8012C30.725 21.8475 30.6322 22.0023 30.5226 22.1499C30.4131 22.2975 30.2703 22.4284 30.0941 22.5427C29.9179 22.657 29.7084 22.7475 29.4655 22.8142C29.2226 22.8808 28.9298 22.9142 28.5869 22.9142C28.1488 22.9142 27.7417 22.8356 27.3655 22.6784C26.9893 22.5213 26.6607 22.288 26.3798 21.9784C26.0988 21.6689 25.8798 21.2904 25.7226 20.8427C25.5655 20.3951 25.4869 19.8808 25.4869 19.2999V19.0427C25.4869 18.4713 25.5703 17.9618 25.7369 17.5142C25.9036 17.0665 26.1322 16.688 26.4226 16.3784C26.7131 16.0689 27.0512 15.8332 27.4369 15.6713C27.8226 15.5094 28.2298 15.4284 28.6584 15.4284C29.2298 15.4284 29.6822 15.5356 30.0155 15.7499C30.3488 15.9642 30.6107 16.2665 30.8012 16.657H31.0584V15.6284H32.8584V24.457C32.8584 24.7808 32.756 25.0475 32.5512 25.257ZM29.1726 21.1999C28.6107 21.1999 28.156 21.0261 27.8084 20.6784C27.4607 20.3308 27.2869 19.857 27.2869 19.257V19.0856C27.2869 18.4856 27.4607 18.0118 27.8084 17.6642C28.156 17.3165 28.6107 17.1427 29.1726 17.1427C29.7345 17.1427 30.1893 17.3213 30.5369 17.6784C30.8845 18.0356 31.0584 18.5046 31.0584 19.0856V19.257C31.0584 19.838 30.8845 20.307 30.5369 20.6642C30.1893 21.0213 29.7345 21.1999 29.1726 21.1999ZM40.6635 20.9999V22.7142H34.0635V20.9999H36.5492V14.4284H34.1492V12.7142H38.3492V20.9999H40.6635ZM45.54 22.9142C46.0067 22.9142 46.4138 22.8618 46.7614 22.757C47.109 22.6523 47.4043 22.5189 47.6471 22.357C47.89 22.1951 48.0876 22.0165 48.24 21.8213C48.3924 21.6261 48.5114 21.438 48.5971 21.257L47.0543 20.3999C46.9495 20.6189 46.7781 20.807 46.54 20.9642C46.3019 21.1213 45.959 21.1999 45.5114 21.1999C45.2828 21.1999 45.0662 21.1642 44.8614 21.0927C44.6567 21.0213 44.4757 20.9213 44.3186 20.7927C44.1614 20.6642 44.0376 20.5118 43.9471 20.3356C43.8567 20.1594 43.8067 19.9665 43.7971 19.757H48.9971V18.7999C48.9971 18.4284 48.9305 18.0451 48.7971 17.6499C48.6638 17.2546 48.4543 16.8927 48.1686 16.5642C47.8828 16.2356 47.5209 15.9642 47.0828 15.7499C46.6448 15.5356 46.1209 15.4284 45.5114 15.4284C45.0162 15.4284 44.5519 15.5165 44.1186 15.6927C43.6852 15.8689 43.3067 16.1142 42.9828 16.4284C42.659 16.7427 42.4043 17.1237 42.2186 17.5713C42.0328 18.0189 41.94 18.5142 41.94 19.057V19.1427C41.94 19.7332 42.0281 20.2618 42.2043 20.7284C42.3805 21.1951 42.6281 21.5904 42.9471 21.9142C43.2662 22.238 43.6448 22.4856 44.0828 22.657C44.5209 22.8284 45.0067 22.9142 45.54 22.9142ZM43.8257 18.2142H47.1686C47.1114 17.8808 46.9328 17.6046 46.6329 17.3856C46.3328 17.1665 45.9543 17.057 45.4971 17.057C45.04 17.057 44.6686 17.1737 44.3829 17.407C44.0971 17.6404 43.9114 17.9094 43.8257 18.2142ZM52.1165 22.7142V18.9427H54.1451C54.6594 18.9427 55.107 18.857 55.488 18.6856C55.8689 18.5142 56.1856 18.288 56.438 18.007C56.6903 17.7261 56.8808 17.407 57.0094 17.0499C57.138 16.6927 57.2022 16.3284 57.2022 15.957V15.6142C57.2022 15.2523 57.138 14.8975 57.0094 14.5499C56.8808 14.2023 56.6903 13.8927 56.438 13.6213C56.1856 13.3499 55.8689 13.1308 55.488 12.9642C55.107 12.7975 54.6594 12.7142 54.1451 12.7142H50.2308V22.7142H52.1165ZM52.1165 17.1427H53.9594C54.3784 17.1427 54.7094 17.0284 54.9522 16.7999C55.1951 16.5713 55.3165 16.2761 55.3165 15.9142V15.7427C55.3165 15.3808 55.1951 15.0856 54.9522 14.857C54.7094 14.6284 54.3784 14.5142 53.9594 14.5142H52.1165V17.1427ZM64.9788 22.7142V20.9999H62.6645V12.7142H58.4645V14.4284H60.8645V20.9999H58.3788V22.7142H64.9788ZM70.3124 22.6356C69.9696 22.8213 69.5696 22.9142 69.1124 22.9142C68.6839 22.9142 68.2815 22.8332 67.9053 22.6713C67.5291 22.5094 67.1982 22.2713 66.9124 21.957C66.6267 21.6427 66.4005 21.2618 66.2339 20.8142C66.0672 20.3665 65.9839 19.857 65.9839 19.2856V19.057C65.9839 18.4951 66.0648 17.9904 66.2267 17.5427C66.3886 17.0951 66.6077 16.7142 66.8839 16.3999C67.1601 16.0856 67.4815 15.8451 67.8482 15.6784C68.2148 15.5118 68.6077 15.4284 69.0267 15.4284C69.5315 15.4284 69.9386 15.5142 70.2482 15.6856C70.5577 15.857 70.8029 16.1237 70.9839 16.4856H71.241V15.6284H73.041V20.5713C73.041 20.857 73.1696 20.9999 73.4267 20.9999H73.6982V22.7142H72.4696C72.1458 22.7142 71.8815 22.6189 71.6767 22.4284C71.472 22.238 71.3696 21.9904 71.3696 21.6856H71.1124C70.922 22.1332 70.6553 22.4499 70.3124 22.6356ZM69.5124 21.1999C68.9886 21.1999 68.5696 21.0261 68.2553 20.6784C67.941 20.3308 67.7839 19.857 67.7839 19.257V19.0856C67.7839 18.4856 67.941 18.0118 68.2553 17.6642C68.5696 17.3165 68.9886 17.1427 69.5124 17.1427C70.0362 17.1427 70.4553 17.3165 70.7696 17.6642C71.0839 18.0118 71.241 18.4856 71.241 19.0856V19.257C71.241 19.857 71.0839 20.3308 70.7696 20.6784C70.4553 21.0261 70.0362 21.1999 69.5124 21.1999ZM80.9247 25.257C80.7199 25.4665 80.4556 25.5713 80.1318 25.5713H75.9175V23.857H79.0461C79.3033 23.857 79.4318 23.7142 79.4318 23.4284V21.6856H79.1747C78.8604 22.5046 78.1842 22.9142 77.1461 22.9142C76.7937 22.9142 76.4652 22.857 76.1604 22.7427C75.8556 22.6284 75.589 22.4523 75.3604 22.2142C75.1318 21.9761 74.9533 21.6784 74.8247 21.3213C74.6961 20.9642 74.6318 20.5427 74.6318 20.057V15.6284H76.4318V19.6856C76.4318 20.1904 76.5509 20.5832 76.789 20.8642C77.0271 21.1451 77.3842 21.2856 77.8604 21.2856C78.4033 21.2856 78.8009 21.1118 79.0533 20.7642C79.3056 20.4165 79.4318 19.9427 79.4318 19.3427V15.6284H81.2318V24.457C81.2318 24.7808 81.1294 25.0475 80.9247 25.257Z" fill="#495567"/>
<path fill-rule="evenodd" clip-rule="evenodd" d="M19.0459 1.65695C19.1364 1.65695 19.2233 1.63909 19.3067 1.60338C19.39 1.56766 19.4626 1.52004 19.5245 1.46052C19.5864 1.401 19.6352 1.32957 19.6709 1.24623C19.7067 1.1629 19.7245 1.07361 19.7245 0.978376C19.7245 0.883138 19.7067 0.793852 19.6709 0.710519C19.6352 0.627186 19.5864 0.555757 19.5245 0.496233C19.4626 0.436709 19.39 0.38909 19.3067 0.353376C19.2233 0.317662 19.1364 0.299805 19.0459 0.299805C18.9507 0.299805 18.8626 0.317662 18.7817 0.353376C18.7007 0.38909 18.6293 0.436709 18.5674 0.496233C18.5055 0.555757 18.4567 0.627186 18.4209 0.710519C18.3852 0.793852 18.3674 0.883138 18.3674 0.978376C18.3674 1.07361 18.3852 1.1629 18.4209 1.24623C18.4567 1.32957 18.5055 1.401 18.5674 1.46052C18.6293 1.52004 18.7007 1.56766 18.7817 1.60338C18.8626 1.63909 18.9507 1.65695 19.0459 1.65695ZM3.25717 5.48195C3.09527 5.60814 2.85241 5.67123 2.5286 5.67123C2.30003 5.67123 2.08574 5.62838 1.88574 5.54266C1.68574 5.45695 1.51193 5.32957 1.36431 5.16052C1.21669 4.99147 1.10003 4.78195 1.01431 4.53195C0.928599 4.28195 0.885742 3.99028 0.885742 3.65695V2.48552C0.885742 2.16171 0.932171 1.8748 1.02503 1.6248C1.11789 1.3748 1.24646 1.16409 1.41074 0.992662C1.57503 0.821233 1.77146 0.691471 2.00003 0.603376C2.2286 0.515281 2.48098 0.471233 2.75717 0.471233C3.04289 0.471233 3.29765 0.517662 3.52146 0.610519C3.74527 0.703376 3.93574 0.831948 4.09289 0.996233C4.25003 1.16052 4.36908 1.35338 4.45003 1.5748C4.53098 1.79623 4.57146 2.03314 4.57146 2.28552V2.37123H3.6286V2.28552C3.6286 1.98552 3.55122 1.75814 3.39646 1.60338C3.24169 1.44861 3.02384 1.37123 2.74288 1.37123C2.47622 1.37123 2.25717 1.46052 2.08574 1.63909C1.91431 1.81766 1.8286 2.12361 1.8286 2.55695V3.61409C1.8286 4.38552 2.14288 4.77123 2.77146 4.77123C3.05241 4.77123 3.2655 4.69623 3.41074 4.54623C3.55598 4.39623 3.6286 4.19504 3.6286 3.94266H2.4286V3.04266H4.57146V5.57123H3.71431V5.01409H3.58574C3.5286 5.1998 3.41908 5.35576 3.25717 5.48195ZM7.45615 5.59266C7.28234 5.64504 7.07877 5.67123 6.84544 5.67123C6.57877 5.67123 6.33591 5.62838 6.11686 5.54266C5.89782 5.45695 5.70853 5.33314 5.54901 5.17123C5.38948 5.00933 5.26567 4.81171 5.17758 4.57838C5.08948 4.34504 5.04544 4.08076 5.04544 3.78552V3.74266C5.04544 3.47123 5.09186 3.22361 5.18472 2.9998C5.27758 2.776 5.40496 2.58552 5.56686 2.42838C5.72877 2.27123 5.91806 2.14861 6.13472 2.06052C6.35139 1.97242 6.58353 1.92838 6.83115 1.92838C7.13591 1.92838 7.39782 1.98195 7.61686 2.08909C7.83591 2.19623 8.01686 2.33195 8.15972 2.49623C8.30258 2.66052 8.40734 2.84147 8.47401 3.03909C8.54067 3.23671 8.57401 3.42838 8.57401 3.61409V4.09266H5.97401C5.97877 4.19742 6.00377 4.29385 6.04901 4.38195C6.09425 4.47004 6.15615 4.54623 6.23472 4.61052C6.31329 4.6748 6.40377 4.7248 6.50615 4.76052C6.60853 4.79623 6.71686 4.81409 6.83115 4.81409C7.05496 4.81409 7.22639 4.7748 7.34544 4.69623C7.46448 4.61766 7.5502 4.52361 7.60258 4.41409L8.37401 4.84266C8.33115 4.93314 8.27163 5.02719 8.19544 5.1248C8.11925 5.22242 8.02044 5.31171 7.89901 5.39266C7.77758 5.47361 7.62996 5.54028 7.45615 5.59266ZM7.65972 3.32123H5.98829C6.03115 3.16885 6.12401 3.03433 6.26686 2.91766C6.40972 2.801 6.59544 2.74266 6.82401 2.74266C7.05258 2.74266 7.24186 2.79742 7.39186 2.90695C7.54186 3.01647 7.63115 3.15457 7.65972 3.32123ZM12.2337 4.71409V5.57123H10.7337C10.5718 5.57123 10.4397 5.51885 10.3373 5.41409C10.2349 5.30933 10.1837 5.176 10.1837 5.01409V2.88552H9.1337V2.02838H10.1837V0.571233H11.0837V2.02838H12.3623V2.88552H11.0837V4.4998C11.0837 4.64266 11.148 4.71409 11.2766 4.71409H12.2337ZM20.5317 4.71409V5.57123H17.4031V4.71409H18.6031V2.88552H17.4888V2.02838H19.5031V4.71409H20.5317ZM24.3914 5.57123V4.71409H23.4342C23.3056 4.71409 23.2414 4.64266 23.2414 4.4998V2.88552H24.5199V2.02838H23.2414V0.571233H22.3414V2.02838H21.2914V2.88552H22.3414V5.01409C22.3414 5.176 22.3925 5.30933 22.4949 5.41409C22.5973 5.51885 22.7295 5.57123 22.8914 5.57123H24.3914ZM31.8215 5.5498C31.6 5.63076 31.3679 5.67123 31.125 5.67123C30.8822 5.67123 30.65 5.63076 30.4286 5.5498C30.2072 5.46885 30.0107 5.351 29.8393 5.19623C29.6679 5.04147 29.5322 4.851 29.4322 4.6248C29.3322 4.39861 29.2822 4.1379 29.2822 3.84266V3.75695C29.2822 3.46647 29.3322 3.20814 29.4322 2.98195C29.5322 2.75576 29.6679 2.56409 29.8393 2.40695C30.0107 2.2498 30.2072 2.13076 30.4286 2.0498C30.65 1.96885 30.8822 1.92838 31.125 1.92838C31.3679 1.92838 31.6 1.96885 31.8215 2.0498C32.0429 2.13076 32.2393 2.2498 32.4107 2.40695C32.5822 2.56409 32.7179 2.75576 32.8179 2.98195C32.9179 3.20814 32.9679 3.46647 32.9679 3.75695V3.84266C32.9679 4.1379 32.9179 4.39861 32.8179 4.6248C32.7179 4.851 32.5822 5.04147 32.4107 5.19623C32.2393 5.351 32.0429 5.46885 31.8215 5.5498ZM31.125 4.81409C30.9965 4.81409 30.875 4.79266 30.7607 4.7498C30.6465 4.70695 30.5465 4.64504 30.4607 4.56409C30.375 4.48314 30.3072 4.38433 30.2572 4.26766C30.2072 4.151 30.1822 4.01885 30.1822 3.87123V3.72838C30.1822 3.58076 30.2072 3.44861 30.2572 3.33195C30.3072 3.21528 30.375 3.11647 30.4607 3.03552C30.5465 2.95457 30.6465 2.89266 30.7607 2.8498C30.875 2.80695 30.9965 2.78552 31.125 2.78552C31.2536 2.78552 31.375 2.80695 31.4893 2.8498C31.6036 2.89266 31.7036 2.95457 31.7893 3.03552C31.875 3.11647 31.9429 3.21528 31.9929 3.33195C32.0429 3.44861 32.0679 3.58076 32.0679 3.72838V3.87123C32.0679 4.01885 32.0429 4.151 31.9929 4.26766C31.9429 4.38433 31.875 4.48314 31.7893 4.56409C31.7036 4.64504 31.6036 4.70695 31.4893 4.7498C31.375 4.79266 31.2536 4.81409 31.125 4.81409ZM34.449 3.72838V5.57123H33.549V2.02838H34.449V2.55695H34.5776C34.6585 2.35695 34.7895 2.20219 34.9704 2.09266C35.1514 1.98314 35.3633 1.92838 35.6062 1.92838C35.7776 1.92838 35.9383 1.95576 36.0883 2.01052C36.2383 2.06528 36.3704 2.1498 36.4847 2.26409C36.599 2.37838 36.6883 2.52361 36.7526 2.6998C36.8169 2.876 36.849 3.08552 36.849 3.32838V5.57123H35.949V3.55695C35.949 3.30457 35.8883 3.10576 35.7669 2.96052C35.6454 2.81528 35.4704 2.74266 35.2419 2.74266C34.9752 2.74266 34.7764 2.83195 34.6454 3.01052C34.5145 3.18909 34.449 3.42838 34.449 3.72838Z" fill="#495567"/>
</svg>
